<svg xmlns="http://www.w3.org/2000/svg" xmlns:cc="http://creativecommons.org/ns#" xmlns:dc="http://purl.org/dc/elements/1.1/" xmlns:rdf="http://www.w3.org/1999/02/22-rdf-syntax-ns#" height="20" version="1.1" width="18"><rect id="backgroundrect" width="100%" height="100%" x="0" y="0" fill="none" stroke="none"/><g class="currentLayer"><title>Layer 1</title><g id="svg_1" class="" fill="#ffffff" fill-opacity="1"><path d="m5.343699523162842,10.699975705146699 c-2.8856,1.3 -4.9780999999999995,4 -5.3437,7.3 c0,1.1 0.8329000000000002,2 1.9375,2 h14 c1.105,0 1.9380000000000002,-0.9 1.9380000000000002,-2 c-0.3660000000000001,-3.3 -2.459,-6 -5.344,-7.3 c-0.6490000000000002,1.3 -2.011,2.3 -3.5940000000000003,2.3 s-2.9453,-1 -3.5938,-2.3 z" fill="#ffffff" id="svg_2" fill-opacity="1"/><path d="m13.937499523162842,5.0000001192092896 a5,5 0 1 1 -10,0 a5,5 0 1 1 10,0 z" fill="#ffffff" id="svg_3" fill-opacity="1"/><path d="m8.937499523162842,9.00000011920929 c-1.2770000000000001,0 -2.4943,0.269 -3.5938,0.7500000000000003 c-2.8856,1.262 -4.9780999999999995,3.997 -5.3437,7.25 c0,1.105 0.8329000000000003,2 1.9375,2 h14 c1.105,0 1.9380000000000002,-0.8950000000000004 1.9380000000000002,-2 c-0.36600000000000016,-3.253 -2.459,-5.9879999999999995 -5.344,-7.25 c-1.1,-0.48100000000000015 -2.317,-0.7500000000000003 -3.5940000000000003,-0.7500000000000003 z" fill="#ffffff" id="svg_4" fill-opacity="1"/></g></g></svg>